<svg version="1.1" id="Layer_1" xmlns="http://www.w3.org/2000/svg" xmlns:xlink="http://www.w3.org/1999/xlink" x="0px" y="0px"
	 width="100%" viewBox="0 0 500 500" enable-background="new 0 0 500 500" xml:space="preserve">
<path fill="#FFFFFF" opacity="1.000000" stroke="none" 
	d="
M236.000000,501.000000 
	C157.333359,501.000000 79.166702,501.000000 1.000042,501.000000 
	C1.000028,334.333405 1.000028,167.666779 1.000014,1.000131 
	C167.666565,1.000088 334.333130,1.000088 500.999756,1.000044 
	C500.999847,167.666519 500.999847,334.333038 500.999939,500.999786 
	C412.833344,501.000000 324.666656,501.000000 236.000000,501.000000 
M163.245773,256.179382 
	C182.023544,256.743500 200.801315,257.307617 219.935867,257.882446 
	C219.124939,268.469727 218.360718,278.554626 217.578278,288.638062 
	C216.392990,303.913361 215.206085,319.188538 213.996078,334.461853 
	C213.608231,339.357391 214.593124,343.918671 218.306503,347.250641 
	C227.186859,355.218903 237.478882,355.766571 248.206802,351.952789 
	C257.801575,348.541870 259.613220,340.612610 260.016968,331.498352 
	C260.967773,310.034088 262.410583,288.591888 263.612244,267.138397 
	C264.579193,249.875565 265.484436,232.609268 266.444031,214.844910 
	C261.942810,214.588593 257.829071,214.298203 253.710342,214.128647 
	C218.255219,212.668976 182.769958,211.713730 147.356461,209.570892 
	C131.113861,208.588074 125.037308,218.188614 123.349922,228.537582 
	C121.105545,242.302658 128.228607,257.076843 145.801117,255.973114 
	C151.272446,255.629486 156.793442,256.076324 163.245773,256.179382 
M293.032379,191.604095 
	C291.160583,215.661636 289.393219,239.727951 287.368774,263.772644 
	C286.482178,274.302307 289.564209,280.641541 298.637756,284.056702 
	C302.149200,285.378357 306.053040,286.274994 309.781830,286.287842 
	C321.796295,286.329285 332.743439,281.195984 333.273773,264.762207 
	C334.309601,232.663116 336.772369,200.610336 338.617340,168.536819 
	C339.024139,161.464569 339.318390,154.385818 339.670776,147.180664 
	C337.811768,147.056870 336.498932,146.945480 335.183746,146.885483 
	C317.222839,146.066284 299.263519,145.209595 281.299988,144.451889 
	C259.841705,143.546783 238.378738,142.752716 216.920074,141.855911 
	C210.869537,141.603027 205.097137,143.074768 202.173859,148.374893 
	C199.301376,153.582901 196.782089,159.629807 196.427536,165.449890 
	C195.663574,177.990173 203.860474,188.527237 218.209885,188.202744 
	C234.339340,187.837997 250.502167,188.726242 266.644653,189.248947 
	C275.404449,189.532593 284.152100,190.189560 293.032379,191.604095 
z"/>
<path fill="#19CB97" opacity="1.000000" stroke="none" 
	d="
M162.768738,256.170349 
	C156.793442,256.076324 151.272446,255.629486 145.801117,255.973114 
	C128.228607,257.076843 121.105545,242.302658 123.349922,228.537582 
	C125.037308,218.188614 131.113861,208.588074 147.356461,209.570892 
	C182.769958,211.713730 218.255219,212.668976 253.710342,214.128647 
	C257.829071,214.298203 261.942810,214.588593 266.444031,214.844910 
	C265.484436,232.609268 264.579193,249.875565 263.612244,267.138397 
	C262.410583,288.591888 260.967773,310.034088 260.016968,331.498352 
	C259.613220,340.612610 257.801575,348.541870 248.206802,351.952789 
	C237.478882,355.766571 227.186859,355.218903 218.306503,347.250641 
	C214.593124,343.918671 213.608231,339.357391 213.996078,334.461853 
	C215.206085,319.188538 216.392990,303.913361 217.578278,288.638062 
	C218.360718,278.554626 219.124939,268.469727 219.935867,257.882446 
	C200.801315,257.307617 182.023544,256.743500 162.768738,256.170349 
z"/>
<path fill="#19CB97" opacity="1.000000" stroke="none" 
	d="
M292.968811,191.141113 
	C284.152100,190.189560 275.404449,189.532593 266.644653,189.248947 
	C250.502167,188.726242 234.339340,187.837997 218.209885,188.202744 
	C203.860474,188.527237 195.663574,177.990173 196.427536,165.449890 
	C196.782089,159.629807 199.301376,153.582901 202.173859,148.374893 
	C205.097137,143.074768 210.869537,141.603027 216.920074,141.855911 
	C238.378738,142.752716 259.841705,143.546783 281.299988,144.451889 
	C299.263519,145.209595 317.222839,146.066284 335.183746,146.885483 
	C336.498932,146.945480 337.811768,147.056870 339.670776,147.180664 
	C339.318390,154.385818 339.024139,161.464569 338.617340,168.536819 
	C336.772369,200.610336 334.309601,232.663116 333.273773,264.762207 
	C332.743439,281.195984 321.796295,286.329285 309.781830,286.287842 
	C306.053040,286.274994 302.149200,285.378357 298.637756,284.056702 
	C289.564209,280.641541 286.482178,274.302307 287.368774,263.772644 
	C289.393219,239.727951 291.160583,215.661636 292.968811,191.141113 
z"/>
</svg>
